<svg width="125" height="126" viewBox="0 0 125 126" fill="none" xmlns="http://www.w3.org/2000/svg">
<g filter="url(#filter0_d_9_387)">
<rect x="4.05615" y="0.0782967" width="116.95" height="116.95" rx="58.475" fill="white" shape-rendering="crispEdges"/>
<g clip-path="url(#clip0_9_387)">
<path d="M91.4062 38.9595H79.0312V29.6783C79.0312 27.3982 77.1863 25.5533 74.9062 25.5533H50.1562C47.8762 25.5533 46.0312 27.3982 46.0312 29.6783V38.9595H33.6562C31.3762 38.9595 29.5312 40.8044 29.5312 43.0845V87.4283C29.5312 89.7083 31.3762 91.5533 33.6562 91.5533H91.4062C93.6863 91.5533 95.5312 89.7083 95.5312 87.4283V43.0845C95.5312 40.8044 93.6863 38.9595 91.4062 38.9595ZM48.0938 29.6783C48.0938 28.5398 49.0177 27.6158 50.1562 27.6158H74.9062C76.0448 27.6158 76.9688 28.5398 76.9688 29.6783V38.9595H74.9062V30.7095C74.9062 30.1392 74.4453 29.6783 73.875 29.6783H51.1875C50.6172 29.6783 50.1562 30.1392 50.1562 30.7095V38.9595H48.0938V29.6783ZM72.8438 31.7408V38.9595H52.2188V31.7408H72.8438ZM93.4688 87.4283C93.4688 88.5668 92.5448 89.4908 91.4062 89.4908H33.6562C32.5178 89.4908 31.5938 88.5668 31.5938 87.4283V68.8658H41.9062V74.022C41.9062 74.5923 42.3672 75.0533 42.9375 75.0533H49.125C49.6953 75.0533 50.1562 74.5923 50.1562 74.022V68.8658H74.9062V74.022C74.9062 74.5923 75.3672 75.0533 75.9375 75.0533H82.125C82.6953 75.0533 83.1562 74.5923 83.1562 74.022V68.8658H93.4688V87.4283ZM43.9688 72.9908V62.6783H48.0938V72.9908H43.9688ZM76.9688 72.9908V62.6783H81.0938V72.9908H76.9688ZM93.4688 66.8033H83.1562V61.647C83.1562 61.0767 82.6953 60.6158 82.125 60.6158H75.9375C75.3672 60.6158 74.9062 61.0767 74.9062 61.647V66.8033H50.1562V61.647C50.1562 61.0767 49.6953 60.6158 49.125 60.6158H42.9375C42.3672 60.6158 41.9062 61.0767 41.9062 61.647V66.8033H31.5938V43.0845C31.5938 41.946 32.5178 41.022 33.6562 41.022H91.4062C92.5448 41.022 93.4688 41.946 93.4688 43.0845V66.8033Z" fill="#EE0000"/>
</g>
</g>
<defs>
<filter id="filter0_d_9_387" x="0.0561523" y="0.0782967" width="124.95" height="124.95" filterUnits="userSpaceOnUse" color-interpolation-filters="sRGB">
<feFlood flood-opacity="0" result="BackgroundImageFix"/>
<feColorMatrix in="SourceAlpha" type="matrix" values="0 0 0 0 0 0 0 0 0 0 0 0 0 0 0 0 0 0 127 0" result="hardAlpha"/>
<feOffset dy="4"/>
<feGaussianBlur stdDeviation="2"/>
<feComposite in2="hardAlpha" operator="out"/>
<feColorMatrix type="matrix" values="0 0 0 0 0 0 0 0 0 0 0 0 0 0 0 0 0 0 0.25 0"/>
<feBlend mode="normal" in2="BackgroundImageFix" result="effect1_dropShadow_9_387"/>
<feBlend mode="normal" in="SourceGraphic" in2="effect1_dropShadow_9_387" result="shape"/>
</filter>
<clipPath id="clip0_9_387">
<rect width="66" height="66" fill="white" transform="translate(29.5312 25.5533)"/>
</clipPath>
</defs>
</svg>
