<svg width="127" height="127" viewBox="0 0 127 127" fill="none" xmlns="http://www.w3.org/2000/svg">
<g filter="url(#filter0_d_9_392)">
<rect x="4.55713" y="0.0782967" width="117.95" height="117.95" rx="58.975" fill="white" shape-rendering="crispEdges"/>
<g clip-path="url(#clip0_9_392)">
<path d="M95.9156 87.5283V43.9783H82.5156V87.5283H79.1656V52.9116H65.7656V87.5283H62.4156V61.8449H49.0156V87.5283H45.6656V71.8949H32.2656V87.5283H31.1489C30.5325 87.5283 30.0322 88.0274 30.0322 88.6449C30.0322 89.2625 30.5325 89.7616 31.1489 89.7616H32.2656H45.6656H49.0156H62.4156H65.7656H79.1656H82.5156H95.9156C96.532 89.7616 97.0322 89.2625 97.0322 88.6449C97.0322 88.0274 96.532 87.5283 95.9156 87.5283ZM34.4989 87.5283V74.1283H43.4322V87.5283H34.4989ZM51.2489 87.5283V64.0783H60.1822V87.5283H51.2489ZM67.9989 87.5283V55.1449H76.9322V87.5283H67.9989ZM84.7489 87.5283V46.2116H93.6822V87.5283H84.7489Z" fill="#EE0000"/>
<path d="M38.9989 56.6301C39.1876 56.6301 39.3808 56.5821 39.5561 56.4804L80.0565 33.0974L77.5217 38.6696C77.2659 39.2313 77.5138 39.8935 78.0755 40.1481C78.2252 40.2173 78.3826 40.2486 78.5378 40.2486C78.9622 40.2486 79.3675 40.0051 79.5551 39.5942L83.5327 30.8507C83.545 30.8228 83.5427 30.7926 83.5528 30.7636C83.574 30.7044 83.5907 30.6475 83.6019 30.5849C83.6075 30.5537 83.6254 30.528 83.6276 30.4956C83.6287 30.4822 83.6231 30.4711 83.6242 30.4577C83.6265 30.4152 83.622 30.3761 83.6198 30.3337C83.6164 30.2723 83.6064 30.2142 83.593 30.1528C83.584 30.1104 83.5818 30.0668 83.5673 30.0255C83.5539 29.9853 83.5304 29.9518 83.5126 29.9127C83.4981 29.887 83.4981 29.8569 83.4824 29.8301C83.4668 29.8033 83.44 29.7877 83.4221 29.762C83.3987 29.7274 83.3808 29.6905 83.3529 29.6592C83.3239 29.6257 83.287 29.6023 83.2535 29.5721C83.2077 29.5308 83.1619 29.4929 83.1106 29.4594C83.076 29.437 83.0447 29.4125 83.0067 29.3935C82.9944 29.3879 82.9877 29.3767 82.9755 29.3711C82.9475 29.3589 82.9174 29.3611 82.8895 29.351C82.8281 29.3287 82.7678 29.3131 82.7041 29.3019C82.6751 29.2963 82.6516 29.2796 82.6215 29.2773L73.0606 28.3505C72.4408 28.288 71.9004 28.7413 71.8412 29.3533C71.7809 29.9674 72.2309 30.5135 72.8439 30.5727L78.9365 31.1634L38.4395 54.5464C37.9046 54.8546 37.7226 55.538 38.0308 56.0717C38.2373 56.4302 38.6125 56.6301 38.9989 56.6301Z" fill="#EE0000"/>
</g>
</g>
<defs>
<filter id="filter0_d_9_392" x="0.557129" y="0.0782967" width="125.95" height="125.95" filterUnits="userSpaceOnUse" color-interpolation-filters="sRGB">
<feFlood flood-opacity="0" result="BackgroundImageFix"/>
<feColorMatrix in="SourceAlpha" type="matrix" values="0 0 0 0 0 0 0 0 0 0 0 0 0 0 0 0 0 0 127 0" result="hardAlpha"/>
<feOffset dy="4"/>
<feGaussianBlur stdDeviation="2"/>
<feComposite in2="hardAlpha" operator="out"/>
<feColorMatrix type="matrix" values="0 0 0 0 0 0 0 0 0 0 0 0 0 0 0 0 0 0 0.25 0"/>
<feBlend mode="normal" in2="BackgroundImageFix" result="effect1_dropShadow_9_392"/>
<feBlend mode="normal" in="SourceGraphic" in2="effect1_dropShadow_9_392" result="shape"/>
</filter>
<clipPath id="clip0_9_392">
<rect width="67" height="67" fill="white" transform="translate(30.0322 25.5533)"/>
</clipPath>
</defs>
</svg>
