<svg width="126" height="126" viewBox="0 0 126 126" fill="none" xmlns="http://www.w3.org/2000/svg">
<g filter="url(#filter0_d_9_382)">
<rect x="4.5249" y="0.0782967" width="116.95" height="116.95" rx="58.475" fill="white" shape-rendering="crispEdges"/>
<path d="M74 47.5533V39.3033L82.25 31.0533L85 36.5533L90.5 39.3033L82.25 47.5533H74ZM74 47.5533L63 58.553M90.5 58.5532C90.5 73.7409 78.1877 86.0532 63 86.0532C47.8122 86.0532 35.5 73.7409 35.5 58.5532C35.5 43.3654 47.8122 31.0533 63 31.0533M76.75 58.5532C76.75 66.1471 70.5938 72.3032 63 72.3032C55.4061 72.3032 49.25 66.1471 49.25 58.5532C49.25 50.9593 55.4061 44.8033 63 44.8033" stroke="#EE0000" stroke-width="4" stroke-linecap="round" stroke-linejoin="round"/>
</g>
<defs>
<filter id="filter0_d_9_382" x="0.524902" y="0.0782967" width="124.95" height="124.95" filterUnits="userSpaceOnUse" color-interpolation-filters="sRGB">
<feFlood flood-opacity="0" result="BackgroundImageFix"/>
<feColorMatrix in="SourceAlpha" type="matrix" values="0 0 0 0 0 0 0 0 0 0 0 0 0 0 0 0 0 0 127 0" result="hardAlpha"/>
<feOffset dy="4"/>
<feGaussianBlur stdDeviation="2"/>
<feComposite in2="hardAlpha" operator="out"/>
<feColorMatrix type="matrix" values="0 0 0 0 0 0 0 0 0 0 0 0 0 0 0 0 0 0 0.25 0"/>
<feBlend mode="normal" in2="BackgroundImageFix" result="effect1_dropShadow_9_382"/>
<feBlend mode="normal" in="SourceGraphic" in2="effect1_dropShadow_9_382" result="shape"/>
</filter>
</defs>
</svg>
